<svg width="219" height="92" xmlns="http://www.w3.org/2000/svg" xmlns:xlink="http://www.w3.org/1999/xlink" viewBox="0 0 219 92" preserveAspectRatio="xMidYMin slice"><defs><path id="a" d="M.06.862h218.313V92H.06z"/></defs><g fill="none" fill-rule="evenodd"><path d="M130.873 31.835c-4.788 0-8.354 2.351-8.354 8.009 0 4.263 2.35 7.223 8.096 7.223 4.87 0 8.178-2.87 8.178-7.399 0-5.133-2.96-7.833-7.92-7.833zM121.3 71.787c-1.133 1.39-2.262 2.868-2.262 4.611 0 3.479 4.436 4.526 10.53 4.526 5.048 0 11.924-.354 11.924-5.047 0-2.79-3.308-2.962-7.488-3.224l-12.704-.866zm25.761-39.689c1.564 2.002 3.22 4.788 3.22 8.791 0 9.66-7.572 15.316-18.535 15.316-2.788 0-5.312-.347-6.877-.782l-2.873 4.612 8.528.521c15.058.96 23.932 1.396 23.932 12.966 0 10.011-8.788 15.665-23.932 15.665-15.752 0-21.757-4.003-21.757-10.878 0-3.917 1.741-6.001 4.787-8.878-2.873-1.214-3.829-3.389-3.829-5.74 0-1.916.956-3.656 2.525-5.311 1.566-1.651 3.306-3.307 5.395-5.221-4.264-2.089-7.485-6.615-7.485-13.056 0-10.007 6.615-16.88 19.928-16.88 3.743 0 6.007.344 8.009.87h16.972v7.395l-8.008.61zM170.38 16.283c-4.962 0-7.833-2.874-7.833-7.837 0-4.956 2.871-7.656 7.833-7.656 5.048 0 7.92 2.7 7.92 7.656 0 4.963-2.872 7.837-7.92 7.837zm-11.229 52.301v-6.872l4.44-.607c1.219-.176 1.392-.436 1.392-1.744V33.774c0-.955-.26-1.567-1.133-1.826l-4.699-1.655.957-7.047h18.017v36.115c0 1.395.084 1.568 1.393 1.744l4.439.607v6.872h-24.806z" fill="#413932"/><mask id="b" fill="#fff"><use xlink:href="#a"/></mask><path d="M204.184 68.69c-10.356 0-14.271-4.173-14.271-14.012V31.877c0-.521 0-.87-.699-.87h-6.091v-7.746c7.661-.872 10.705-4.702 11.662-14.188h8.269v12.362c0 .607 0 .87.697.87h12.27v8.702h-12.967v20.799c0 5.135 1.22 7.135 5.917 7.135 2.44 0 4.961-.608 7.05-1.391l2.352 7.66c-3.744 1.826-9.226 3.48-14.189 3.48z" fill="#413932" mask="url(#b)"/><path d="M89.421 42.371L49.628 2.581a5.869 5.869 0 0 0-8.3 0l-8.263 8.263 10.482 10.482a6.968 6.968 0 0 1 7.171 1.671 6.978 6.978 0 0 1 1.656 7.215l10.102 10.102a6.974 6.974 0 0 1 7.216 1.658 6.982 6.982 0 0 1 0 9.876 6.984 6.984 0 0 1-11.399-7.596l-9.421-9.421-.001 24.792c.665.33 1.293.769 1.847 1.321a6.984 6.984 0 0 1 0 9.878 6.982 6.982 0 0 1-9.876 0 6.984 6.984 0 0 1 2.286-11.402V34.397a6.899 6.899 0 0 1-2.286-1.524 6.982 6.982 0 0 1-1.505-7.635L29.005 14.904 1.72 42.187a5.87 5.87 0 0 0 0 8.303l39.793 39.791a5.87 5.87 0 0 0 8.301 0l39.607-39.606a5.874 5.874 0 0 0 0-8.304" fill="#F44D27" mask="url(#b)"/></g></svg>
